# xmcd CD database file
#
# Track frame offsets:
#	150
#	13025
#	32645
#	54992
#	73625
#	91175
#	107500
#	120277
#	138342
#	154640
#	175135
#	194822
#	217630
#	235472
#	260040
#	273477
#
# Disc length: 3819 seconds
#
# Revision: 2
# Processed by: cddbd v1.4PL0 Copyright (c) Steve Scherf et al.
# Submitted via: CDex 1.40Release
#
DISCID=d70ee910
DTITLE=Rob Rio and The Revolvers - Fine Young Girl
DYEAR=1994
DGENRE=
TTITLE0=Shout For Ammons
TTITLE1=She Turns Me On
TTITLE2=Fine Young Girl
TTITLE3=Reap What You Sow
TTITLE4=Summer Nights
TTITLE5=Roll Baby Roll
TTITLE6=Thank You
TTITLE7=Blue Monk
TTITLE8=Back To The Boogie
TTITLE9=Pacifica Pinetop
TTITLE10=Looking Back
TTITLE11=Floyd's Blues
TTITLE12=Mojo
TTITLE13=I'm Your Dentist
TTITLE14=Make Up Your Mind
TTITLE15=Swanee Boogie
EXTD=YEAR: 1994
EXTT0=
EXTT1=
EXTT2=
EXTT3=
EXTT4=
EXTT5=
EXTT6=
EXTT7=
EXTT8=
EXTT9=
EXTT10=
EXTT11=
EXTT12=
EXTT13=
EXTT14=
EXTT15=
PLAYORDER=
